PathFileType	4	(X/Y/Z)	3_1_34_p1_0-249_filt_butterworth.trc
DataRate	CameraRate	NumFrames	NumMarkers	Units	OrigDataRate	OrigDataStartFrame	OrigNumFrames
59.0	59.0	6	27	m	59.0	124	249
Frame#	Time	RHip			RKnee			RAnkle			RBigToe			RSmallToe			RHeel			LHip			LKnee			LAnkle			LBigToe			LSmallToe			LHeel			Neck			Head			Nose			RShoulder			RElbow			RWrist			RThumb			RIndex			RPinky			LShoulder			LElbow			LWrist			LThumb			LIndex			LPinky			
		X1	Y1	Z1	X2	Y2	Z2	X3	Y3	Z3	X4	Y4	Z4	X5	Y5	Z5	X6	Y6	Z6	X7	Y7	Z7	X8	Y8	Z8	X9	Y9	Z9	X10	Y10	Z10	X11	Y11	Z11	X12	Y12	Z12	X13	Y13	Z13	X14	Y14	Z14	X15	Y15	Z15	X16	Y16	Z16	X17	Y17	Z17	X18	Y18	Z18	X19	Y19	Z19	X20	Y20	Z20	X21	Y21	Z21	X22	Y22	Z22	X23	Y23	Z23	X24	Y24	Z24	X25	Y25	Z25	X26	Y26	Z26	X27	Y27	Z27	
124	2.101694915254237	0.21360875079008879	0.35720970729854606	0.9635600641022639	0.17189338649439687	0.4000017664965362	1.3583339012840185	0.14632494387867456	0.48739530496773786	1.7893787409450337	0.17665994358653284	0.2800400003074787	1.8149048272640242	0.2325817557699547	0.36191362224370477	1.8423243966787788	0.13370873697982114	0.4899074810348209	1.8249879980464634	-0.01671880587922959	0.34791900034494194	0.9621335139629879	-0.0076182518129016795	0.3811392448247509	1.372043864110768	-0.010666718407218372	0.42688862529505023	1.7593653747938645	0.009006782632725838	0.24691788783242222	1.8160151288366198	-0.05633975918097753	0.2830984434933229	1.7967143951121458	-0.01070928876319073	0.4801578543562067	1.8309726680168668	0.10612597394226424	0.3039273155498713	0.36354976486411433	0.13603736621123094	0.16968074318033655	0.10617566728417502	0.1218953215619051	0.1270570022099401	0.2591671062985468	0.2731306077291129	0.3127962046042023	0.47304553989344283	0.3300951587430048	0.3126794578797319	0.7405815519566524	0.2545612683187719	0.23527505098708495	0.971489813680425	0.14073015869175884	0.16606444966061087	1.0321802590802638	0.16536852034163418	0.15351011120766173	1.0688163422117731	0.21524760746902233	0.18170964494021682	1.0797398885018983	-0.05963241666792636	0.2460543776143414	0.43564066157601083	-0.12246749165891324	0.27974933100276334	0.7291617871892889	-0.13017125034111132	0.21615721609350835	0.9619314238231308	-0.07495615647787218	0.158963388513827	1.0434985759834818	-0.08959308625168623	0.14392673795402425	1.0771667909951985	-0.15437950241084913	0.207553286925792	1.090247080358493
125	2.1186440677966103	0.21247270440548716	0.3538154699376859	0.96353884819787	0.17228119373899417	0.4016085375155093	1.3592705090842503	0.14602717006657465	0.4873220217942374	1.7873693061138038	0.1770518956659281	0.28045568479893335	1.8134437838297472	0.2326421803830182	0.3617653570735568	1.8421568448615524	0.13325867079157738	0.4895231619049668	1.8250222354316685	-0.016816138033026406	0.347754077486144	0.9624396441292529	-0.008030190602393548	0.38125335559674245	1.3714410629979061	-0.01034669251515001	0.4275313981811658	1.757742876991067	0.008902793774820766	0.24694469713503195	1.816020396889767	-0.056381673674665435	0.28310902601621135	1.7957193707220127	-0.010447619518559251	0.48052206267779024	1.830085112808026	0.1047096789726088	0.30728336369696135	0.3624754327332857	0.13384911672609978	0.17225444634377252	0.1062886779808521	0.11921164804980214	0.13167048583566307	0.2595207189063645	0.27284041490311317	0.312752763688641	0.47418975278396497	0.32971125305026766	0.3147995781230755	0.7418888399779271	0.25572233866711486	0.2287368662306894	0.969239930947407	0.14188377834798802	0.16278446966623328	1.0305885201435554	0.16785019576014354	0.14391157677992716	1.0653317234523132	0.21480706454652868	0.17917738614169865	1.0773983423041804	-0.06114899901452493	0.24930168210680123	0.43804807616812147	-0.12252760147523149	0.2800324707197262	0.7306044819667635	-0.1301564551696378	0.21602570373802285	0.9619071174408058	-0.0754688654036878	0.15502759000569044	1.0433468056710553	-0.08953739981996715	0.14389907112898948	1.0770082478642393	-0.15504128323272917	0.2076581381085031	1.0924648973547169
126	2.135593220338983	0.21091511491986975	0.35220191983362065	0.9639211446536717	0.17217894031275882	0.4017363162360972	1.3587882134911187	0.14560853324757683	0.4874176499813771	1.7844247258266952	0.17736374802783733	0.2803939706877078	1.81215886995439	0.23266652175538372	0.36173165422024367	1.8420564894873936	0.13258227008824747	0.4892105382581642	1.822929844802025	-0.01701147343090274	0.3476268519367775	0.9632943495732688	-0.008181980356834297	0.3812277987202864	1.3702867485588877	-0.010541554533062703	0.4285501090929902	1.7564970528892907	0.008883306887375762	0.24684624919288592	1.8159147603149353	-0.05632733916128621	0.28316026240363706	1.7954920493752715	-0.010147607018913547	0.48133374256903605	1.8277211062673577	0.10295237715281337	0.31167809808478464	0.3620241330401075	0.1320425795185767	0.1732594090203794	0.10637084641620427	0.11761687157392603	0.1342292406158824	0.2598945089558635	0.271558979250684	0.31109448298128495	0.4748769114884923	0.3299566351611467	0.3154896704197854	0.7426816971282314	0.2564681069785619	0.2219268230524111	0.9679438211858642	0.14356046256261257	0.15889416623292738	1.029221929464107	0.17062100852741255	0.1328635220838581	1.061284862202147	0.21414223033085067	0.17540679250342586	1.0750683257418197	-0.0630311883795383	0.25352298782268495	0.44120779027962653	-0.12272338304283029	0.27947300615810955	0.7317330820278626	-0.1301155918184072	0.2158486922911535	0.9618944569341501	-0.07587371604479887	0.15181955672945924	1.0431090816725495	-0.0895457306146924	0.143934924996362	1.0766663083970434	-0.1552098524563022	0.20774649998276823	1.0939199541195583
127	2.152542372881356	0.2091112130688115	0.3517232518975336	0.9649146572936234	0.1719282559501315	0.4015118544090662	1.357395166586766	0.14523606106815695	0.487874099125374	1.7817876747027532	0.17722856675481952	0.278982153103223	1.8109240669090052	0.23276391147431025	0.3617186558076155	1.8420247753035777	0.1324522595238936	0.49007662093294163	1.819319413549943	-0.017275639106974498	0.3475616491160247	0.9644702086632072	-0.008313864090155602	0.3810666871684496	1.368769208228237	-0.010855396327627638	0.42980638407048155	1.7555387133403104	0.008964945131720128	0.24656162130339537	1.815645132836294	-0.05620518461373021	0.28324722424121557	1.7955079933883797	-0.009779816847276714	0.4831097153453943	1.8249341553077825	0.10163315738864535	0.31494587171954436	0.362014686838529	0.13095986887069755	0.17301329706302157	0.10640751160010464	0.11677580101614202	0.1346297467442986	0.2599866421405628	0.2693762033169792	0.3072619093089178	0.47491615989453956	0.3305209278968741	0.3138471847902932	0.7425420176345502	0.25600403906697783	0.2165211345922114	0.9675982043988265	0.14530299984995818	0.15343357113494435	1.0277680561377467	0.17289633876276866	0.12189984467840985	1.0573014642801863	0.21356435425951478	0.17149482580683414	1.0736356132334177	-0.06445309430791625	0.256610712318847	0.4435176816433	-0.12305964215377951	0.27711703928368436	0.7324058289226935	-0.1300792604365272	0.21566763877407977	0.9618919201154665	-0.07606437812115442	0.15032222281097699	1.0429721440539987	-0.08965142315557019	0.14397184721437037	1.0761705633910432	-0.15511512473761851	0.20761363330621618	1.0944236408087242
128	2.169491525423729	0.20773412122704216	0.35164141710482966	0.9663898357386507	0.1716548062599845	0.4013109898634145	1.3553936452157376	0.1450277441571577	0.48872020229662144	1.78024376022874	0.17650640009561314	0.2755730132299229	1.809030919150332	0.23305535477123213	0.3617085351022733	1.8420342884542165	0.13356345867241184	0.49330334923300045	1.8171073771725375	-0.017486175333575833	0.3475916470138737	0.9654075710736713	-0.008536024793308391	0.3806765151245352	1.366529841310808	-0.011004398286696502	0.43097790357494725	1.754466107717413	0.009106360813268622	0.24616342277607214	1.8152732172744772	-0.05607727884496867	0.28335685482312445	1.7954739889714495	-0.009349958553744955	0.4863611990122483	1.8234305038172476	0.10115328149309132	0.3162596495025088	0.3620788483077258	0.1304201369714592	0.17151801983347328	0.10641506538351526	0.11585012317375976	0.13391593961622028	0.25957043911192357	0.26722939056859407	0.30260376954631407	0.47456016151979785	0.330970296465884	0.30861572162763057	0.7417241827848712	0.2546577440912508	0.2136831630799002	0.9678790161506583	0.14743031224617562	0.1443944922958907	1.0255612667110372	0.1745323114721213	0.11354432499650638	1.0543549652535618	0.2133151532602756	0.16787030174019013	1.0732277176028664	-0.06502205295691126	0.25778734113651763	0.44408829253821996	-0.12341576594687448	0.2736646959672756	0.7328651844506764	-0.13005422956792526	0.21550835118703945	0.9618923385676537	-0.07613945823089645	0.15029911471456833	1.0433420430891192	-0.0897885981765176	0.144012055484855	1.0762683078209392	-0.15502139100580253	0.20736363266638366	1.094424140862895
129	2.1864406779661016	0.2071574363366902	0.35164410878047486	0.9677659747365772	0.17140299604234566	0.401008775221047	1.3534590830992963	0.14496293553501413	0.48955526061214244	1.7795573374170257	0.17548839140403436	0.27113472192031446	1.8065928043819186	0.23344625906176505	0.36177069381125226	1.8420927790190187	0.1354362908079644	0.4982649618538895	1.8183594922963613	-0.017571344775854477	0.34778026878001933	0.9658671487611261	-0.008774635705896754	0.3800355309784191	1.364170757672984	-0.011010936902173162	0.43167905044119065	1.753521526867173	0.009085993311175272	0.2461515621415653	1.8151723950414906	-0.056015532669417084	0.2834707178797268	1.7953998638002953	-0.008832236398228919	0.49109319760242554	1.8240243905419473	0.10121511838520872	0.3164706635926917	0.3621491382854826	0.1299306928098944	0.1685078380700128	0.10641594192626747	0.11464885622989275	0.13324145980103075	0.25851832322535295	0.2659890297508237	0.2993427274692679	0.4743116203940408	0.3306838350113026	0.30044506696029755	0.7410453857666187	0.2530117035678677	0.2130094599460317	0.9687152701144772	0.15058074888291492	0.13174209565145	1.0229280506379208	0.1755152474188555	0.1090953664827488	1.0528845796318234	0.21329393365646476	0.1646643356234866	1.07322288324595	-0.06503942461472412	0.2579411310016307	0.44325702595158145	-0.12373683619456496	0.27093624953800716	0.733462475536732	-0.13002275925043066	0.2153459501753505	0.9618747255077482	-0.07611550347885701	0.1517125411315821	1.0448317432740397	-0.089914968533814	0.14406168093072216	1.0775068323381203	-0.1550771069227841	0.20712441528935122	1.09440863985614
